<svg id="Layer_1" data-name="Layer 1" xmlns="http://www.w3.org/2000/svg" xmlns:xlink="http://www.w3.org/1999/xlink" viewBox="0 0 114.53 40.42"><defs><style>.cls-1{fill:url(#linear-gradient);}.cls-2{fill:#77787b;}</style><linearGradient id="linear-gradient" x1="3.61" y1="15.89" x2="111.61" y2="15.89" gradientUnits="userSpaceOnUse"><stop offset="0" stop-color="#0012ff"/><stop offset="0.03" stop-color="#001dfe"/><stop offset="0.26" stop-color="#006ff7"/><stop offset="0.43" stop-color="#00a3f2"/><stop offset="0.51" stop-color="#00b7f0"/><stop offset="0.57" stop-color="#00aff1"/><stop offset="0.66" stop-color="#0098f3"/><stop offset="0.77" stop-color="#0073f6"/><stop offset="0.9" stop-color="#0041fb"/><stop offset="1" stop-color="#0012ff"/></linearGradient></defs><title>Colour_1.5inches</title><path class="cls-1" d="M23.59,14h9.33L27,27.63H17.54ZM76,10.76H3.61l3.5-7.25H75.72l2,3.68ZM47.63,13.57a9.15,9.15,0,0,1,6,2L51.13,20a3.44,3.44,0,0,0-2.4-1c-1.42,0-2.83.74-2.84,2.19,0,.9.55,1.29,1.56,1.28a6,6,0,0,0,3.08-1.06l-1.06,4a9.44,9.44,0,0,1-6.64,2.44c-3.4,0-5.4-2.19-5.4-5.1C37.42,17.35,42.29,13.56,47.63,13.57Zm57.51.91-2.55,4.1a13.94,13.94,0,0,0-5.65-.89c-.63,0-2,0-2,.62,0,.29.67.34,1,.34l2.29.14c3.2.19,4.69,1.41,4.69,3.72,0,3.64-3.71,5.74-8.91,5.76a26.53,26.53,0,0,1-10.75-2.09l2-4.46a15.43,15.43,0,0,0,6.13,1.56c1.59,0,2.71-.19,2.71-.77,0-.22-.16-.4-1.24-.44L91.13,22c-3.06-.12-4.92-1.06-4.92-3.24,0-3.07,3.65-5.39,10.55-5.4A30.6,30.6,0,0,1,105.14,14.48ZM65,14h9.3L68.46,27.63H59ZM53.61,14h9L56.65,27.63H47.56ZM80.13,27.58h-9.3L79.44,7.22l-2-3.71H86.7l2,3.71ZM38.59,14h1.26l-4.07,7.2h-1c-4.28,0-6,1.48-7.22,3.13l.85-2.11C30.17,18,33.56,14,38.59,14ZM14.71,5.6h10l-9.58,22H5ZM88.42,3.51h4.25l2.09,3.71L93,10.76h-4.2L90.4,7.21Zm5.7,0h4.22l2.23,3.71-1.73,3.54H94.33l1.88-3.55Zm5.66,0h4.12l2.23,3.71-1.73,3.54h-4.3l1.77-3.55Zm5.48,0h4.12l2.23,3.71-1.73,3.54h-4.23l1.7-3.55Z"/><path class="cls-2" d="M19.39,33.26c.87.14,1.38.55,1.38,1.28s-.61,1.32-1.62,1.32a1.8,1.8,0,0,1-1.42-.55v.46H17V34.32h.73a1.52,1.52,0,0,0,1.41.82c.49,0,.82-.22.82-.56s-.16-.51-.69-.6l-.86-.14c-.88-.14-1.31-.59-1.31-1.26s.62-1.34,1.63-1.34a1.73,1.73,0,0,1,1.31.48v-.38h.67v1.31H20a1.28,1.28,0,0,0-1.22-.73c-.54,0-.84.23-.84.62s.26.53.78.61Z"/><path class="cls-2" d="M25.06,35.77H23.81v-.26a1.43,1.43,0,0,1-1,.36,1.34,1.34,0,0,1-1.34-1.48v-1H21v-.69h1.25v1.65c0,.54.28.84.75.84a1.06,1.06,0,0,0,.8-.45V33.38h-.49v-.69h1.24v2.39h.5Z"/><path class="cls-2" d="M29.06,34.23a1.59,1.59,0,0,1-1.56,1.61,1.65,1.65,0,0,1-.95-.29v.88h.72v.69h-2v-.69h.49v-3h-.49v-.69h1.24v.22a1.65,1.65,0,0,1,.95-.29A1.58,1.58,0,0,1,29.06,34.23Zm-.76,0a.93.93,0,0,0-.91-1,1.13,1.13,0,0,0-.84.36v1.2a1.17,1.17,0,0,0,.84.36A.93.93,0,0,0,28.3,34.23Z"/><path class="cls-2" d="M33.06,34.23a1.58,1.58,0,0,1-1.55,1.61,1.6,1.6,0,0,1-1-.29v.88h.71v.69H29.32v-.69h.49v-3h-.49v-.69h1.24v.22a1.6,1.6,0,0,1,1-.29A1.57,1.57,0,0,1,33.06,34.23Zm-.76,0a.92.92,0,0,0-.91-1,1.1,1.1,0,0,0-.83.36v1.2a1.13,1.13,0,0,0,.83.36A.92.92,0,0,0,32.3,34.23Z"/><path class="cls-2" d="M35.06,35.77H33.32v-.69h.49V31.83h-.49v-.69h1.24v3.94h.5Z"/><path class="cls-2" d="M37.13,36.43h.36v.69h-2v-.69h.81l.35-.69L35.5,33.38H35v-.69h1.7v.69h-.4l.74,1.53.78-1.53h-.38v-.69h1.69v.69h-.46Z"/><path class="cls-2" d="M45.84,34.05a2.2,2.2,0,0,1-2.21,1.81,2.32,2.32,0,0,1-2.37-2.31,2.3,2.3,0,0,1,2.32-2.3,2.08,2.08,0,0,1,1.49.54v-.45h.73v1.72h-.73A1.42,1.42,0,0,0,43.63,32a1.56,1.56,0,0,0,0,3.11A1.37,1.37,0,0,0,45,34.05Z"/><path class="cls-2" d="M50.35,35.77H48.61v-.69h.49v-1c0-.54-.28-.84-.75-.84a1.09,1.09,0,0,0-.8.45v1.36h.51v.69H46.31v-.69h.49V31.83h-.49v-.69h1.24v1.8a1.44,1.44,0,0,1,1-.35,1.34,1.34,0,0,1,1.36,1.48v1h.49Z"/><path class="cls-2" d="M53.84,35.08h.5v.69H53.1v-.22a1.6,1.6,0,1,1-1-2.93,1.64,1.64,0,0,1,1,.28v-.21h1.24v.69h-.5Zm-.74-.25v-1.2a1.13,1.13,0,0,0-.84-.36,1,1,0,0,0,0,1.92A1.17,1.17,0,0,0,53.1,34.83Z"/><path class="cls-2" d="M56.57,35.77H54.83v-.69h.48v-1.7h-.48v-.69h1.23v2.39h.51Zm-1.39-4.1a.51.51,0,1,1,.51.49A.5.5,0,0,1,55.18,31.67Z"/><path class="cls-2" d="M60.94,35.77H59.2v-.69h.49v-1c0-.54-.28-.84-.75-.84a1.09,1.09,0,0,0-.8.45v1.36h.5v.69H56.9v-.69h.49v-1.7H56.9v-.69h1.24v.25a1.44,1.44,0,0,1,1-.35,1.34,1.34,0,0,1,1.36,1.48v1h.49Z"/><path class="cls-2" d="M65.56,33.26c.88.14,1.39.55,1.39,1.28s-.62,1.32-1.63,1.32a1.8,1.8,0,0,1-1.42-.55v.46h-.73V34.32h.73a1.53,1.53,0,0,0,1.41.82c.5,0,.83-.22.83-.56s-.16-.51-.7-.6l-.85-.14c-.89-.14-1.31-.59-1.31-1.26s.62-1.34,1.63-1.34a1.72,1.72,0,0,1,1.3.48v-.38h.67v1.31h-.72A1.27,1.27,0,0,0,65,31.92c-.55,0-.85.23-.85.62s.27.53.78.61Z"/><path class="cls-2" d="M70.79,34.23a1.67,1.67,0,1,1-1.66-1.61A1.6,1.6,0,0,1,70.79,34.23Zm-.74,0a.92.92,0,1,0-.92,1A.92.92,0,0,0,70.05,34.23Z"/><path class="cls-2" d="M72.8,35.77H71.06v-.69h.49V31.83h-.49v-.69H72.3v3.94h.5Z"/><path class="cls-2" d="M76.91,35.77H75.66v-.26a1.42,1.42,0,0,1-1,.36,1.34,1.34,0,0,1-1.35-1.48v-1h-.5v-.69h1.25v1.65c0,.54.28.84.75.84a1.06,1.06,0,0,0,.8-.45V33.38h-.49v-.69h1.24v2.39h.5Z"/><path class="cls-2" d="M79.65,35.74a2.34,2.34,0,0,1-.77.13,1.15,1.15,0,0,1-1.19-1.29v-1.2h-.76v-.69h.76v-1h.75v1h1.09v.69H78.44v1.2a.52.52,0,0,0,.59.59,1.82,1.82,0,0,0,.52-.08Z"/><path class="cls-2" d="M81.68,35.77H79.94v-.69h.49v-1.7h-.49v-.69h1.24v2.39h.5Zm-1.39-4.1a.52.52,0,1,1,.52.49A.5.5,0,0,1,80.29,31.67Z"/><path class="cls-2" d="M85.31,34.23a1.67,1.67,0,0,1-3.34,0,1.67,1.67,0,0,1,3.34,0Zm-.75,0a.92.92,0,1,0-.91,1A.92.92,0,0,0,84.56,34.23Z"/><path class="cls-2" d="M89.74,35.77H88v-.69h.49v-1c0-.54-.28-.84-.76-.84a1.06,1.06,0,0,0-.79.45v1.36h.5v.69H85.7v-.69h.49v-1.7H85.7v-.69h1.24v.25a1.44,1.44,0,0,1,1-.35,1.34,1.34,0,0,1,1.35,1.48v1h.5Z"/><path class="cls-2" d="M92.15,33.94c.48.09,1,.35,1,1s-.43,1-1.18,1a1.71,1.71,0,0,1-1.11-.38v.28h-.68V34.71h.69a1.26,1.26,0,0,0,1,.57c.4,0,.51-.17.51-.33s-.12-.3-.4-.35l-.56-.1c-.66-.11-1.13-.39-1.13-1s.54-.94,1.26-.94a1.14,1.14,0,0,1,.84.29v-.21H93v1h-.67a1,1,0,0,0-.83-.47c-.35,0-.48.15-.48.32s.11.29.47.36Z"/></svg>